# Blender v2.82 (sub 7) OBJ File: 'Male_base_body_by_vinrax.blend'
# www.blender.org
mtllib Male_base_eyes_by_vinrax.mtl
o base_eyes_Sphere
v 0.075844 4.297747 0.190972
v 0.075573 4.304546 0.188928
v 0.074538 4.316306 0.181139
v 0.072989 4.324162 0.169482
v 0.071162 4.326922 0.155732
v 0.078527 4.297208 0.190616
v 0.080835 4.303491 0.188229
v 0.084261 4.314355 0.179847
v 0.085693 4.321614 0.167794
v 0.084913 4.324162 0.153905
v 0.080801 4.295675 0.190314
v 0.085295 4.300484 0.187636
v 0.092503 4.308799 0.178752
v 0.096462 4.314355 0.166364
v 0.096569 4.316306 0.152356
v 0.082320 4.293382 0.190112
v 0.088276 4.295984 0.187240
v 0.098011 4.300484 0.178020
v 0.103658 4.303491 0.165408
v 0.104358 4.304546 0.151322
v 0.082854 4.290675 0.190041
v 0.089323 4.290675 0.187101
v 0.099945 4.290675 0.177763
v 0.106185 4.290675 0.165072
v 0.107093 4.290675 0.150958
v 0.082320 4.287969 0.190112
v 0.088276 4.285367 0.187240
v 0.098011 4.280867 0.178020
v 0.103658 4.277860 0.165408
v 0.104358 4.276804 0.151322
v 0.080801 4.285675 0.190314
v 0.085295 4.280867 0.187636
v 0.092503 4.272552 0.178752
v 0.096462 4.266996 0.166364
v 0.096569 4.265045 0.152356
v 0.078527 4.284142 0.190616
v 0.080835 4.277860 0.188229
v 0.084261 4.266996 0.179847
v 0.085693 4.259737 0.167794
v 0.084913 4.257188 0.153905
v 0.075844 4.283604 0.190972
v 0.075573 4.276804 0.188928
v 0.074538 4.265045 0.181139
v 0.072989 4.257188 0.169482
v 0.071162 4.254428 0.155732
v 0.073162 4.284142 0.191329
v 0.070311 4.277860 0.189627
v 0.064815 4.266996 0.182431
v 0.060286 4.259737 0.171170
v 0.057412 4.257188 0.157559
v 0.075936 4.290675 0.191663
v 0.070888 4.285675 0.191631
v 0.065850 4.280867 0.190219
v 0.056572 4.272552 0.183526
v 0.049516 4.266996 0.172600
v 0.045755 4.265045 0.159107
v 0.069368 4.287969 0.191833
v 0.062869 4.285367 0.190615
v 0.051065 4.280867 0.184257
v 0.042320 4.277860 0.173556
v 0.037967 4.276804 0.160142
v 0.068834 4.290675 0.191904
v 0.061822 4.290675 0.190754
v 0.049131 4.290675 0.184514
v 0.039793 4.290675 0.173892
v 0.035231 4.290675 0.160505
v 0.069368 4.293382 0.191833
v 0.062869 4.295984 0.190615
v 0.051065 4.300484 0.184257
v 0.042320 4.303491 0.173556
v 0.037967 4.304546 0.160142
v 0.070888 4.295675 0.191631
v 0.065850 4.300484 0.190219
v 0.056572 4.308799 0.183526
v 0.049516 4.314355 0.172600
v 0.045755 4.316306 0.159107
v 0.073162 4.297208 0.191329
v 0.070311 4.303491 0.189627
v 0.064815 4.314355 0.182431
v 0.060286 4.321614 0.171170
v 0.057412 4.324162 0.157559
v -0.075844 4.297747 0.190972
v -0.075573 4.304546 0.188928
v -0.074538 4.316306 0.181139
v -0.072989 4.324162 0.169482
v -0.071162 4.326922 0.155732
v -0.078527 4.297208 0.190616
v -0.080835 4.303491 0.188229
v -0.084261 4.314355 0.179847
v -0.085693 4.321614 0.167794
v -0.084913 4.324162 0.153905
v -0.080801 4.295675 0.190314
v -0.085295 4.300484 0.187636
v -0.092503 4.308799 0.178752
v -0.096462 4.314355 0.166364
v -0.096569 4.316306 0.152356
v -0.082320 4.293382 0.190112
v -0.088276 4.295984 0.187240
v -0.098011 4.300484 0.178020
v -0.103658 4.303491 0.165408
v -0.104358 4.304546 0.151322
v -0.082854 4.290675 0.190041
v -0.089323 4.290675 0.187101
v -0.099945 4.290675 0.177763
v -0.106185 4.290675 0.165072
v -0.107093 4.290675 0.150958
v -0.082320 4.287969 0.190112
v -0.088276 4.285367 0.187240
v -0.098011 4.280867 0.178020
v -0.103658 4.277860 0.165408
v -0.104358 4.276804 0.151322
v -0.080801 4.285675 0.190314
v -0.085295 4.280867 0.187636
v -0.092503 4.272552 0.178752
v -0.096462 4.266996 0.166364
v -0.096569 4.265045 0.152356
v -0.078527 4.284142 0.190616
v -0.080835 4.277860 0.188229
v -0.084261 4.266996 0.179847
v -0.085693 4.259737 0.167794
v -0.084913 4.257188 0.153905
v -0.075844 4.283604 0.190972
v -0.075573 4.276804 0.188928
v -0.074538 4.265045 0.181139
v -0.072989 4.257188 0.169482
v -0.071162 4.254428 0.155732
v -0.073162 4.284142 0.191329
v -0.070311 4.277860 0.189627
v -0.064815 4.266996 0.182431
v -0.060286 4.259737 0.171170
v -0.057412 4.257188 0.157559
v -0.075936 4.290675 0.191663
v -0.070888 4.285675 0.191631
v -0.065850 4.280867 0.190219
v -0.056572 4.272552 0.183526
v -0.049516 4.266996 0.172600
v -0.045755 4.265045 0.159107
v -0.069368 4.287969 0.191833
v -0.062869 4.285367 0.190615
v -0.051065 4.280867 0.184257
v -0.042320 4.277860 0.173556
v -0.037967 4.276804 0.160142
v -0.068834 4.290675 0.191904
v -0.061822 4.290675 0.190754
v -0.049131 4.290675 0.184514
v -0.039793 4.290675 0.173892
v -0.035231 4.290675 0.160505
v -0.069368 4.293382 0.191833
v -0.062869 4.295984 0.190615
v -0.051065 4.300484 0.184257
v -0.042320 4.303491 0.173556
v -0.037967 4.304546 0.160142
v -0.070888 4.295675 0.191631
v -0.065850 4.300484 0.190219
v -0.056572 4.308799 0.183526
v -0.049516 4.314355 0.172600
v -0.045755 4.316306 0.159107
v -0.073162 4.297208 0.191329
v -0.070311 4.303491 0.189627
v -0.064815 4.314355 0.182431
v -0.060286 4.321614 0.171170
v -0.057412 4.324162 0.157559
vt 0.796498 0.614832
vt 0.942156 0.677766
vt 0.840801 0.827823
vt 0.729403 0.719361
vt 0.699875 0.491007
vt 0.820051 0.493520
vt 0.686242 0.566563
vt 0.546394 0.511445
vt 0.549752 0.492962
vt 0.598414 0.491687
vt 0.592039 0.529116
vt 0.545739 0.474611
vt 0.590097 0.454844
vt 0.501654 0.493890
vt 0.536221 0.527207
vt 0.683637 0.415750
vt 0.981289 0.497562
vt 0.795601 0.372116
vt 0.534989 0.459210
vt 0.568408 0.424079
vt 0.639877 0.352368
vt 0.948731 0.312918
vt 0.725699 0.270460
vt 0.519161 0.449135
vt 0.536606 0.403989
vt 0.575432 0.310165
vt 0.845263 0.151395
vt 0.624814 0.198659
vt 0.499543 0.397470
vt 0.499786 0.296026
vt 0.683582 0.054360
vt 0.502894 0.175788
vt 0.500712 0.445893
vt 0.462870 0.405567
vt 0.424438 0.311703
vt 0.506206 0.017369
vt 0.381765 0.199421
vt 0.482418 0.449926
vt 0.432066 0.427137
vt 0.360591 0.354923
vt 0.325192 0.049457
vt 0.278227 0.267050
vt 0.168214 0.148595
vt 0.467076 0.460671
vt 0.207855 0.369364
vt 0.059944 0.301201
vt 0.456938 0.476394
vt 0.411701 0.458879
vt 0.457581 0.513143
vt 0.453598 0.494816
vt 0.468283 0.528543
vt 0.317938 0.419368
vt 0.181788 0.491402
vt 0.017767 0.484922
vt 0.405061 0.496013
vt 0.303153 0.495441
vt 0.318784 0.571554
vt 0.204772 0.614738
vt 0.413192 0.532885
vt 0.362680 0.635828
vt 0.274226 0.719900
vt 0.434872 0.563795
vt 0.049305 0.672437
vt 0.428040 0.678081
vt 0.379536 0.788301
vt 0.484123 0.538608
vt 0.466706 0.583927
vt 0.151689 0.835542
vt 0.504606 0.692100
vt 0.502616 0.815682
vt 0.502601 0.541815
vt 0.503758 0.590190
vt 0.313098 0.948622
vt 0.520863 0.537859
vt 0.540223 0.581804
vt 0.580595 0.675190
vt 0.505157 0.976832
vt 0.624700 0.786786
vt 0.571237 0.560815
vt 0.644553 0.631213
vt 0.690984 0.940288
vt 0.796498 0.614832
vt 0.729403 0.719361
vt 0.840801 0.827823
vt 0.942156 0.677766
vt 0.699875 0.491007
vt 0.686242 0.566563
vt 0.820051 0.493520
vt 0.546394 0.511445
vt 0.592039 0.529116
vt 0.598414 0.491687
vt 0.549752 0.492962
vt 0.590097 0.454844
vt 0.545739 0.474611
vt 0.501654 0.493890
vt 0.536221 0.527207
vt 0.683637 0.415750
vt 0.981289 0.497562
vt 0.795601 0.372116
vt 0.568408 0.424079
vt 0.534989 0.459210
vt 0.639877 0.352368
vt 0.948731 0.312918
vt 0.725699 0.270460
vt 0.536606 0.403989
vt 0.519161 0.449135
vt 0.575432 0.310165
vt 0.845263 0.151395
vt 0.624814 0.198659
vt 0.499543 0.397470
vt 0.499786 0.296026
vt 0.683582 0.054360
vt 0.502894 0.175788
vt 0.500712 0.445893
vt 0.462870 0.405567
vt 0.424438 0.311703
vt 0.506206 0.017369
vt 0.381765 0.199421
vt 0.482418 0.449926
vt 0.432066 0.427137
vt 0.360591 0.354923
vt 0.325192 0.049457
vt 0.278227 0.267050
vt 0.168214 0.148595
vt 0.467076 0.460671
vt 0.207855 0.369364
vt 0.059944 0.301201
vt 0.411701 0.458879
vt 0.456938 0.476394
vt 0.457581 0.513143
vt 0.468283 0.528543
vt 0.453598 0.494816
vt 0.317938 0.419368
vt 0.181788 0.491402
vt 0.017767 0.484922
vt 0.405061 0.496013
vt 0.303153 0.495441
vt 0.318784 0.571554
vt 0.204772 0.614738
vt 0.413192 0.532885
vt 0.362680 0.635828
vt 0.274226 0.719900
vt 0.434872 0.563795
vt 0.049305 0.672437
vt 0.428040 0.678081
vt 0.379536 0.788301
vt 0.466706 0.583927
vt 0.484123 0.538608
vt 0.151689 0.835542
vt 0.504606 0.692100
vt 0.502616 0.815682
vt 0.503758 0.590190
vt 0.502601 0.541815
vt 0.313098 0.948622
vt 0.540223 0.581804
vt 0.520863 0.537859
vt 0.580595 0.675190
vt 0.505157 0.976832
vt 0.624700 0.786786
vt 0.571237 0.560815
vt 0.644553 0.631213
vt 0.690984 0.940288
vn 0.2150 0.9626 0.1646
vn 0.5328 0.6954 0.4822
vn 0.2886 0.2457 0.9254
vn 0.4189 0.4681 0.7781
vn 0.3693 0.1642 0.9147
vn 0.1682 0.0906 0.9816
vn 0.5729 0.3128 0.7576
vn 0.5657 0.8161 0.1180
vn 0.7616 0.4647 0.4518
vn 0.4131 0.0576 0.9089
vn 0.6562 0.1098 0.7465
vn 0.8342 0.5453 0.0823
vn 0.8854 0.1632 0.4353
vn 0.4131 -0.0576 0.9089
vn 0.2208 0.0375 0.9746
vn 0.6563 -0.1098 0.7465
vn 0.9795 0.1915 0.0630
vn 0.8854 -0.1632 0.4353
vn 0.5729 -0.3128 0.7576
vn 0.9795 -0.1915 0.0630
vn 0.7616 -0.4647 0.4518
vn 0.3694 -0.1642 0.9147
vn 0.4189 -0.4681 0.7780
vn 0.8342 -0.5453 0.0823
vn 0.5328 -0.6955 0.4821
vn 0.2886 -0.2457 0.9254
vn 0.2208 -0.0375 0.9746
vn 0.2177 -0.5522 0.8048
vn 0.5658 -0.8161 0.1180
vn 0.2150 -0.9626 0.1646
vn 0.1830 -0.2898 0.9394
vn -0.1646 -0.9626 0.2151
vn 0.2339 -0.8203 0.5219
vn 0.0687 -0.2898 0.9546
vn 0.0413 -0.0375 0.9984
vn -0.0000 -0.5522 0.8337
vn -0.5153 -0.8161 0.2616
vn -0.0896 -0.8203 0.5649
vn -0.0369 -0.2457 0.9686
vn -0.2012 -0.4681 0.8604
vn -0.6172 -0.4647 0.6349
vn -0.3885 -0.6955 0.6045
vn -0.1177 -0.1642 0.9794
vn -0.3552 -0.3128 0.8809
vn -0.7410 -0.1632 0.6514
vn -0.1615 -0.0576 0.9852
vn -0.4386 -0.1098 0.8920
vn -0.7838 -0.5453 0.2973
vn -0.7410 0.1632 0.6514
vn -0.1615 0.0576 0.9852
vn 0.0939 -0.0905 0.9915
vn -0.4386 0.1098 0.8920
vn -0.9290 -0.1915 0.3166
vn -0.6172 0.4647 0.6349
vn -0.1177 0.1642 0.9794
vn -0.3552 0.3128 0.8809
vn -0.9290 0.1915 0.3166
vn -0.0369 0.2457 0.9686
vn 0.0413 0.0375 0.9984
vn -0.2012 0.4681 0.8604
vn -0.7838 0.5453 0.2973
vn -0.3884 0.6954 0.6046
vn 0.0687 0.2898 0.9546
vn -0.0000 0.5522 0.8337
vn -0.5153 0.8161 0.2616
vn -0.0895 0.8203 0.5648
vn 0.0939 0.0905 0.9915
vn 0.2339 0.8203 0.5218
vn 0.1682 -0.0905 0.9816
vn -0.1646 0.9626 0.2150
vn 0.2177 0.5522 0.8048
vn 0.1830 0.2898 0.9394
vn -0.2150 0.9626 0.1646
vn -0.5328 0.6954 0.4822
vn -0.2886 0.2457 0.9254
vn -0.4189 0.4681 0.7781
vn -0.3693 0.1642 0.9147
vn -0.1682 0.0906 0.9816
vn -0.5729 0.3128 0.7576
vn -0.5657 0.8161 0.1180
vn -0.7616 0.4647 0.4518
vn -0.4131 0.0576 0.9089
vn -0.6562 0.1098 0.7465
vn -0.8342 0.5453 0.0823
vn -0.8854 0.1632 0.4353
vn -0.4131 -0.0576 0.9089
vn -0.2208 0.0375 0.9746
vn -0.6563 -0.1098 0.7465
vn -0.9795 0.1915 0.0630
vn -0.8854 -0.1632 0.4353
vn -0.5729 -0.3128 0.7576
vn -0.9795 -0.1915 0.0630
vn -0.7616 -0.4647 0.4518
vn -0.3694 -0.1642 0.9147
vn -0.4189 -0.4681 0.7780
vn -0.8342 -0.5453 0.0823
vn -0.5328 -0.6954 0.4821
vn -0.2886 -0.2457 0.9254
vn -0.2208 -0.0375 0.9746
vn -0.2177 -0.5522 0.8048
vn -0.5657 -0.8161 0.1180
vn -0.2150 -0.9626 0.1646
vn -0.1830 -0.2898 0.9394
vn 0.1646 -0.9626 0.2151
vn -0.2339 -0.8203 0.5219
vn -0.0687 -0.2898 0.9546
vn -0.0413 -0.0375 0.9984
vn 0.5153 -0.8161 0.2616
vn 0.0896 -0.8203 0.5649
vn 0.0369 -0.2457 0.9686
vn 0.2012 -0.4681 0.8604
vn 0.6172 -0.4647 0.6349
vn 0.3885 -0.6955 0.6045
vn 0.1177 -0.1642 0.9794
vn 0.3552 -0.3128 0.8809
vn 0.7410 -0.1632 0.6514
vn 0.1615 -0.0576 0.9852
vn 0.4386 -0.1098 0.8920
vn 0.7838 -0.5453 0.2973
vn 0.7410 0.1632 0.6514
vn 0.1615 0.0576 0.9852
vn -0.0939 -0.0905 0.9915
vn 0.4386 0.1098 0.8920
vn 0.9290 -0.1915 0.3166
vn 0.6172 0.4647 0.6349
vn 0.1177 0.1642 0.9794
vn 0.3552 0.3128 0.8809
vn 0.9290 0.1915 0.3166
vn 0.0369 0.2457 0.9686
vn -0.0413 0.0375 0.9984
vn 0.2012 0.4681 0.8604
vn 0.7838 0.5453 0.2973
vn 0.3884 0.6954 0.6045
vn -0.0687 0.2898 0.9546
vn 0.5153 0.8161 0.2616
vn 0.0895 0.8203 0.5648
vn -0.0939 0.0905 0.9915
vn -0.2339 0.8204 0.5218
vn -0.1682 -0.0905 0.9816
vn 0.1646 0.9626 0.2150
vn -0.2177 0.5522 0.8048
vn -0.1830 0.2898 0.9394
usemtl Material.002
s off
f 9/1/1 10/2/1 5/3/1 4/4/1
f 13/5/2 14/6/2 9/1/2 8/7/2
f 6/8/3 11/9/3 12/10/3 7/11/3
f 12/10/4 13/5/4 8/7/4 7/11/4
f 11/9/5 16/12/5 17/13/5 12/10/5
f 51/14/6 11/9/6 6/8/6 1/15/6
f 17/13/7 18/16/7 13/5/7 12/10/7
f 14/6/8 15/17/8 10/2/8 9/1/8
f 18/16/9 19/18/9 14/6/9 13/5/9
f 16/12/10 21/19/10 22/20/10 17/13/10
f 22/20/11 23/21/11 18/16/11 17/13/11
f 19/18/12 20/22/12 15/17/12 14/6/12
f 23/21/13 24/23/13 19/18/13 18/16/13
f 21/19/14 26/24/14 27/25/14 22/20/14
f 16/12/15 11/9/15 51/14/15 21/19/15
f 27/25/16 28/26/16 23/21/16 22/20/16
f 24/23/17 25/27/17 20/22/17 19/18/17
f 28/26/18 29/28/18 24/23/18 23/21/18
f 32/29/19 33/30/19 28/26/19 27/25/19
f 29/28/20 30/31/20 25/27/20 24/23/20
f 33/30/21 34/32/21 29/28/21 28/26/21
f 26/24/22 31/33/22 32/29/22 27/25/22
f 37/34/23 38/35/23 33/30/23 32/29/23
f 34/32/24 35/36/24 30/31/24 29/28/24
f 38/35/25 39/37/25 34/32/25 33/30/25
f 31/33/26 36/38/26 37/34/26 32/29/26
f 26/24/27 21/19/27 51/14/27 31/33/27
f 42/39/28 43/40/28 38/35/28 37/34/28
f 39/37/29 40/41/29 35/36/29 34/32/29
f 44/42/30 45/43/30 40/41/30 39/37/30
f 36/38/31 41/44/31 42/39/31 37/34/31
f 49/45/32 50/46/32 45/43/32 44/42/32
f 43/40/33 44/42/33 39/37/33 38/35/33
f 41/44/34 46/47/34 47/48/34 42/39/34
f 57/49/35 52/50/35 51/14/35 62/51/35
f 47/48/36 48/52/36 43/40/36 42/39/36
f 55/53/37 56/54/37 50/46/37 49/45/37
f 48/52/38 49/45/38 44/42/38 43/40/38
f 46/47/39 52/50/39 53/55/39 47/48/39
f 53/55/40 54/56/40 48/52/40 47/48/40
f 59/57/41 60/58/41 55/53/41 54/56/41
f 54/56/42 55/53/42 49/45/42 48/52/42
f 52/50/43 57/49/43 58/59/43 53/55/43
f 58/59/44 59/57/44 54/56/44 53/55/44
f 64/60/45 65/61/45 60/58/45 59/57/45
f 57/49/46 62/51/46 63/62/46 58/59/46
f 63/62/47 64/60/47 59/57/47 58/59/47
f 60/58/48 61/63/48 56/54/48 55/53/48
f 69/64/49 70/65/49 65/61/49 64/60/49
f 62/51/50 67/66/50 68/67/50 63/62/50
f 46/47/51 41/44/51 51/14/51 52/50/51
f 68/67/52 69/64/52 64/60/52 63/62/52
f 65/61/53 66/68/53 61/63/53 60/58/53
f 74/69/54 75/70/54 70/65/54 69/64/54
f 67/66/55 72/71/55 73/72/55 68/67/55
f 73/72/56 74/69/56 69/64/56 68/67/56
f 70/65/57 71/73/57 66/68/57 65/61/57
f 72/71/58 77/74/58 78/75/58 73/72/58
f 67/66/59 62/51/59 51/14/59 72/71/59
f 78/75/60 79/76/60 74/69/60 73/72/60
f 75/70/61 76/77/61 71/73/61 70/65/61
f 79/76/62 80/78/62 75/70/62 74/69/62
f 77/74/63 1/15/63 2/79/63 78/75/63
f 2/79/64 3/80/64 79/76/64 78/75/64
f 80/78/65 81/81/65 76/77/65 75/70/65
f 3/80/66 4/4/66 80/78/66 79/76/66
f 77/74/67 72/71/67 51/14/67 1/15/67
f 8/7/68 9/1/68 4/4/68 3/80/68
f 36/38/69 31/33/69 51/14/69 41/44/69
f 4/4/70 5/3/70 81/81/70 80/78/70
f 7/11/71 8/7/71 3/80/71 2/79/71
f 1/15/72 6/8/72 7/11/72 2/79/72
f 90/82/73 85/83/73 86/84/73 91/85/73
f 94/86/74 89/87/74 90/82/74 95/88/74
f 87/89/75 88/90/75 93/91/75 92/92/75
f 93/91/76 88/90/76 89/87/76 94/86/76
f 92/92/77 93/91/77 98/93/77 97/94/77
f 132/95/78 82/96/78 87/89/78 92/92/78
f 98/93/79 93/91/79 94/86/79 99/97/79
f 95/88/80 90/82/80 91/85/80 96/98/80
f 99/97/81 94/86/81 95/88/81 100/99/81
f 97/94/82 98/93/82 103/100/82 102/101/82
f 103/100/83 98/93/83 99/97/83 104/102/83
f 100/99/84 95/88/84 96/98/84 101/103/84
f 104/102/85 99/97/85 100/99/85 105/104/85
f 102/101/86 103/100/86 108/105/86 107/106/86
f 97/94/87 102/101/87 132/95/87 92/92/87
f 108/105/88 103/100/88 104/102/88 109/107/88
f 105/104/89 100/99/89 101/103/89 106/108/89
f 109/107/90 104/102/90 105/104/90 110/109/90
f 113/110/91 108/105/91 109/107/91 114/111/91
f 110/109/92 105/104/92 106/108/92 111/112/92
f 114/111/93 109/107/93 110/109/93 115/113/93
f 107/106/94 108/105/94 113/110/94 112/114/94
f 118/115/95 113/110/95 114/111/95 119/116/95
f 115/113/96 110/109/96 111/112/96 116/117/96
f 119/116/97 114/111/97 115/113/97 120/118/97
f 112/114/98 113/110/98 118/115/98 117/119/98
f 107/106/99 112/114/99 132/95/99 102/101/99
f 123/120/100 118/115/100 119/116/100 124/121/100
f 120/118/101 115/113/101 116/117/101 121/122/101
f 125/123/102 120/118/102 121/122/102 126/124/102
f 117/119/103 118/115/103 123/120/103 122/125/103
f 130/126/104 125/123/104 126/124/104 131/127/104
f 124/121/105 119/116/105 120/118/105 125/123/105
f 122/125/106 123/120/106 128/128/106 127/129/106
f 138/130/107 143/131/107 132/95/107 133/132/107
f 128/128/36 123/120/36 124/121/36 129/133/36
f 136/134/108 130/126/108 131/127/108 137/135/108
f 129/133/109 124/121/109 125/123/109 130/126/109
f 127/129/110 128/128/110 134/136/110 133/132/110
f 134/136/111 128/128/111 129/133/111 135/137/111
f 140/138/112 135/137/112 136/134/112 141/139/112
f 135/137/113 129/133/113 130/126/113 136/134/113
f 133/132/114 134/136/114 139/140/114 138/130/114
f 139/140/115 134/136/115 135/137/115 140/138/115
f 145/141/116 140/138/116 141/139/116 146/142/116
f 138/130/117 139/140/117 144/143/117 143/131/117
f 144/143/118 139/140/118 140/138/118 145/141/118
f 141/139/119 136/134/119 137/135/119 142/144/119
f 150/145/120 145/141/120 146/142/120 151/146/120
f 143/131/121 144/143/121 149/147/121 148/148/121
f 127/129/122 133/132/122 132/95/122 122/125/122
f 149/147/123 144/143/123 145/141/123 150/145/123
f 146/142/124 141/139/124 142/144/124 147/149/124
f 155/150/125 150/145/125 151/146/125 156/151/125
f 148/148/126 149/147/126 154/152/126 153/153/126
f 154/152/127 149/147/127 150/145/127 155/150/127
f 151/146/128 146/142/128 147/149/128 152/154/128
f 153/153/129 154/152/129 159/155/129 158/156/129
f 148/148/130 153/153/130 132/95/130 143/131/130
f 159/155/131 154/152/131 155/150/131 160/157/131
f 156/151/132 151/146/132 152/154/132 157/158/132
f 160/157/133 155/150/133 156/151/133 161/159/133
f 158/156/134 159/155/134 83/160/134 82/96/134
f 83/160/64 159/155/64 160/157/64 84/161/64
f 161/159/135 156/151/135 157/158/135 162/162/135
f 84/161/136 160/157/136 161/159/136 85/83/136
f 158/156/137 82/96/137 132/95/137 153/153/137
f 89/87/138 84/161/138 85/83/138 90/82/138
f 117/119/139 122/125/139 132/95/139 112/114/139
f 85/83/140 161/159/140 162/162/140 86/84/140
f 88/90/141 83/160/141 84/161/141 89/87/141
f 82/96/142 83/160/142 88/90/142 87/89/142
