<?xml version="1.0" standalone="no"?>
<!DOCTYPE svg PUBLIC "-//W3C//DTD SVG 20010904//EN"
 "http://www.w3.org/TR/2001/REC-SVG-20010904/DTD/svg10.dtd">
<svg version="1.0" xmlns="http://www.w3.org/2000/svg"
 width="300.000000pt" height="761.000000pt" viewBox="0 0 300.000000 761.000000"
 preserveAspectRatio="xMidYMid meet">
<metadata>
Created by potrace 1.10, written by Peter Selinger 2001-2011
</metadata>
<g transform="translate(0.000000,761.000000) scale(0.100000,-0.100000)"
fill="#000000" stroke="none">
<path d="M747 7603 c414 -2 1092 -2 1505 0 414 1 76 2 -752 2 -828 0 -1166 -1
-753 -2z"/>
<path d="M1389 7467 c-64 -18 -131 -60 -163 -101 -45 -60 -59 -111 -60 -226
-1 -118 15 -181 64 -248 16 -22 39 -62 53 -88 23 -47 23 -54 15 -149 -6 -56
-16 -110 -24 -123 -10 -15 -95 -62 -232 -129 -119 -58 -239 -122 -266 -141
-61 -44 -100 -105 -130 -202 -33 -106 -40 -183 -26 -303 11 -87 10 -118 -4
-212 -9 -61 -19 -162 -22 -225 -5 -99 -10 -124 -36 -183 -37 -85 -63 -214 -77
-385 -11 -134 -27 -216 -57 -288 -22 -53 -40 -71 -83 -85 -20 -6 -51 -22 -68
-36 -45 -33 -108 -129 -128 -194 -9 -30 -21 -65 -26 -78 -20 -49 36 -69 85
-30 15 12 30 18 34 15 4 -4 -10 -55 -31 -114 -20 -59 -37 -118 -37 -132 0 -30
17 -50 42 -50 10 0 24 -11 30 -25 15 -33 42 -40 78 -19 23 14 32 16 42 6 20
-20 46 -14 69 18 17 22 28 28 45 24 31 -8 70 47 100 141 18 56 26 116 34 236
l10 160 46 97 c160 336 186 415 224 657 12 72 33 189 49 260 33 155 36 153 75
-45 42 -216 49 -328 26 -430 -10 -47 -26 -143 -35 -215 -9 -71 -21 -152 -26
-180 -16 -88 -39 -376 -39 -488 0 -172 26 -373 65 -503 59 -193 68 -273 70
-604 2 -343 1 -338 106 -650 38 -113 75 -238 84 -278 24 -118 20 -238 -16
-391 -16 -73 -31 -165 -32 -205 -2 -61 2 -77 25 -116 37 -64 164 -150 221
-150 73 0 101 130 76 345 -10 87 -3 265 10 265 10 0 50 -129 56 -180 3 -25 10
-103 15 -173 7 -88 16 -143 29 -173 18 -39 23 -44 53 -44 38 0 132 41 166 73
37 34 62 92 62 141 0 45 -8 85 -60 301 -57 236 -50 318 47 600 85 249 95 301
96 500 0 94 -2 258 -3 365 -3 163 -1 204 14 250 72 230 91 384 91 745 0 361
-28 629 -77 764 -18 47 -20 71 -16 210 6 168 34 374 51 368 14 -4 41 -118 72
-302 45 -261 107 -428 260 -695 l49 -85 8 -165 c8 -190 28 -280 79 -351 13
-19 29 -29 46 -29 18 0 36 -11 54 -32 27 -33 28 -33 58 -16 26 14 31 15 42 2
7 -9 25 -14 43 -12 23 2 32 9 34 26 2 15 10 22 26 22 57 0 60 59 10 194 -20
54 -34 100 -31 102 3 3 20 -4 38 -15 37 -23 56 -26 78 -12 12 8 12 19 -4 73
-21 75 -73 183 -107 219 -13 14 -46 39 -74 54 -27 16 -51 30 -53 31 -10 8 -62
219 -76 308 -27 173 -87 352 -148 445 -22 32 -25 51 -30 181 -4 95 -14 176
-28 235 -14 59 -24 144 -29 245 -5 98 -13 170 -23 196 -53 142 -122 210 -277
275 -30 13 -84 46 -120 75 -36 28 -92 69 -126 91 -126 81 -130 86 -140 205 -6
83 -6 86 31 168 116 257 69 508 -111 596 -65 32 -165 41 -235 21z m216 -48
c54 -25 110 -85 138 -148 42 -90 25 -269 -40 -409 -35 -78 -42 -154 -24 -251
12 -63 35 -87 157 -169 60 -40 123 -86 139 -102 17 -16 73 -49 126 -73 53 -25
114 -61 136 -80 85 -77 123 -193 123 -378 0 -71 6 -134 14 -165 27 -90 46
-252 39 -335 -6 -77 -5 -80 29 -136 69 -113 130 -292 149 -435 10 -82 34 -184
65 -281 17 -55 22 -61 74 -87 30 -15 62 -36 71 -46 49 -56 126 -238 107 -250
-17 -11 -62 30 -83 75 -23 47 -78 90 -91 70 -4 -8 3 -21 20 -34 22 -17 29 -34
36 -86 5 -35 23 -103 40 -151 34 -100 39 -141 14 -136 -15 3 -46 71 -76 166
-7 24 -17 43 -23 43 -18 -3 -8 -62 25 -147 33 -85 34 -118 3 -112 -26 5 -60
80 -75 164 -10 60 -15 74 -30 74 -22 0 -22 3 3 -95 26 -101 29 -140 9 -140
-24 0 -57 72 -70 153 -14 82 -23 103 -41 85 -9 -9 4 -92 27 -165 4 -12 0 -18
-11 -18 -9 0 -24 18 -35 43 -37 84 -51 161 -57 317 l-5 155 -64 116 c-69 125
-117 227 -159 335 -54 140 -69 198 -90 344 -9 63 -30 162 -47 220 -17 58 -32
114 -35 125 -2 11 12 89 32 174 19 85 35 161 35 168 0 22 -29 14 -35 -9 -3
-13 -17 -77 -31 -143 -31 -143 -46 -210 -75 -330 -17 -71 -22 -131 -25 -285
-3 -149 -7 -194 -17 -190 -6 2 -43 6 -82 7 -61 3 -76 0 -120 -24 -53 -30 -115
-102 -115 -134 0 -30 18 -22 44 19 31 50 76 87 122 102 41 14 158 7 179 -10
43 -35 93 -582 80 -880 -10 -254 -35 -419 -88 -585 -24 -75 -24 -93 -16 -600
3 -223 -6 -272 -95 -527 -86 -246 -105 -382 -71 -508 29 -108 9 -104 -42 9
-19 42 -44 86 -54 97 -20 21 -20 24 -5 75 20 67 20 81 -1 77 -13 -2 -21 -19
-28 -58 -9 -46 -14 -56 -33 -58 -13 -2 -34 -20 -49 -44 -34 -51 -41 -34 -17
40 16 46 19 83 17 197 -8 461 -7 496 16 604 12 58 36 140 52 183 17 43 36 99
42 125 l12 46 78 4 c74 5 77 4 77 -17 0 -13 5 -20 13 -18 7 3 13 28 15 66 2
51 0 62 -13 62 -10 0 -15 -10 -15 -30 0 -30 -1 -30 -52 -30 -29 0 -64 -3 -77
-7 -27 -7 -26 -9 -5 141 6 44 5 48 -12 44 -16 -3 -21 -18 -30 -103 -12 -108
-31 -215 -39 -223 -20 -21 -24 51 -30 558 -2 243 -12 321 -55 430 -15 37 -27
160 -21 202 1 5 21 -8 46 -27 78 -59 161 -70 266 -35 69 24 169 86 169 106 0
22 -26 16 -58 -11 -54 -46 -141 -77 -212 -78 -53 -1 -74 4 -115 26 -103 57
-97 42 -102 260 -5 180 -12 225 -31 201 -4 -5 -5 -92 -2 -194 l6 -185 -30 -27
c-79 -72 -187 -84 -291 -31 -33 17 -69 40 -79 52 -23 25 -49 28 -44 4 5 -25
103 -91 162 -108 94 -28 177 -16 242 36 l39 31 3 -93 c2 -75 -1 -102 -17 -139
-45 -104 -64 -252 -52 -389 5 -55 4 -127 -1 -175 -6 -45 -9 -132 -8 -195 3
-288 -40 -290 -72 -3 -8 79 -16 112 -25 112 -16 0 -18 -98 -3 -150 5 -19 6
-37 2 -41 -4 -4 -35 0 -69 9 -57 15 -62 19 -65 46 -2 16 -9 31 -15 34 -10 3
-13 -16 -13 -72 0 -61 3 -76 15 -76 10 0 15 10 15 26 0 22 3 25 23 20 12 -3
40 -9 62 -12 49 -8 65 -20 65 -48 0 -12 16 -55 36 -96 66 -138 100 -349 90
-557 -3 -70 -9 -171 -12 -225 -5 -78 -2 -116 16 -205 19 -90 21 -123 15 -198
-9 -101 -10 -210 -4 -395 3 -101 0 -132 -13 -162 -22 -48 -38 -48 -119 1 -140
85 -151 133 -95 414 20 99 36 199 36 223 0 81 -38 238 -100 419 -109 314 -111
331 -114 685 -3 324 -14 425 -65 579 -56 171 -78 412 -61 673 11 170 17 225
45 403 8 50 19 134 26 188 13 113 15 114 121 124 96 9 182 -39 220 -123 13
-28 38 -32 38 -5 0 32 -68 110 -120 136 -55 28 -142 34 -199 14 -40 -14 -44
-10 -30 30 9 25 9 63 0 154 -20 197 -29 238 -132 577 -22 74 -44 146 -48 160
-4 14 -16 27 -26 28 -21 5 -21 2 31 -158 49 -154 49 -154 21 -250 -24 -84 -31
-121 -63 -330 -30 -199 -79 -345 -201 -600 l-74 -155 -10 -150 c-6 -82 -16
-177 -24 -210 -23 -101 -63 -180 -82 -161 -3 3 2 36 12 75 9 38 15 80 13 92
-6 48 -22 22 -40 -63 -18 -94 -40 -146 -64 -155 -31 -12 -36 13 -15 73 11 33
23 83 27 112 5 44 4 52 -9 52 -11 0 -18 -12 -22 -37 -10 -66 -36 -157 -51
-180 -8 -13 -23 -23 -34 -23 -28 0 -26 30 9 120 16 41 32 90 36 108 6 29 4 33
-10 30 -12 -2 -24 -23 -35 -63 -23 -80 -57 -155 -70 -155 -24 0 -21 38 13 138
19 59 38 132 42 162 5 46 11 60 38 82 28 23 30 28 14 33 -26 11 -66 -21 -86
-69 -30 -68 -99 -104 -86 -43 24 109 98 217 175 253 30 14 62 29 70 33 21 11
57 77 76 141 21 72 31 138 44 292 12 141 37 252 75 337 21 45 27 76 31 161 2
58 12 166 22 240 14 113 15 149 6 225 -14 109 -5 207 30 306 40 115 104 180
236 236 125 53 371 185 385 206 7 12 18 74 24 140 13 132 14 129 -64 247 -45
67 -75 165 -75 238 0 62 29 164 56 199 76 100 241 137 359 82z m-29 -3616 c16
-65 19 -118 20 -313 1 -129 6 -250 11 -269 5 -21 5 -58 -1 -93 -8 -47 -6 -79
8 -151 22 -120 22 -125 -9 -237 -45 -165 -54 -356 -29 -635 7 -73 -13 -292
-27 -301 -23 -14 -40 225 -27 364 21 224 -4 518 -57 650 -14 33 -15 48 -7 70
20 50 32 147 31 252 0 58 1 213 3 345 4 228 10 282 43 383 10 28 22 8 41 -65z
m121 -2000 c10 -15 36 -63 58 -107 30 -60 46 -82 62 -84 25 -4 23 1 57 -153
31 -139 32 -174 7 -215 -34 -56 -149 -125 -185 -111 -23 9 -35 70 -49 258 -10
124 -18 182 -29 199 -19 30 -48 124 -48 157 0 16 6 23 20 23 12 0 26 12 35 30
19 38 49 39 72 3z"/>
<path d="M1326 6282 c-4 -6 3 -44 14 -85 43 -164 46 -348 5 -411 -30 -45 -107
-34 -242 37 -32 16 -45 19 -54 10 -9 -9 -4 -17 22 -32 40 -25 151 -67 196 -75
89 -15 135 50 141 199 6 144 -53 403 -82 357z"/>
<path d="M1647 6258 c-15 -61 -28 -250 -22 -312 12 -124 61 -216 116 -216 27
0 118 46 159 80 27 22 32 31 23 41 -9 9 -19 6 -44 -15 -47 -40 -127 -78 -149
-71 -10 3 -29 27 -42 53 -21 43 -23 61 -23 192 0 80 4 173 8 208 8 52 7 62 -6
62 -8 0 -17 -10 -20 -22z"/>
<path d="M1505 5298 c4 -249 11 -457 16 -463 6 -6 12 -6 17 0 4 6 5 212 2 460
-5 427 -6 450 -23 453 -18 4 -19 -13 -12 -450z"/>
<path d="M696 5218 c-3 -7 -7 -47 -10 -88 -3 -41 -8 -86 -12 -99 -6 -19 -4
-22 12 -19 10 2 21 14 25 28 11 39 10 178 -1 185 -6 3 -12 0 -14 -7z"/>
<path d="M825 5218 c-3 -7 -4 -26 -2 -43 2 -28 0 -30 -30 -27 -33 3 -52 -11
-31 -25 7 -4 24 -8 38 -8 22 0 25 -4 22 -34 -1 -19 -14 -56 -28 -82 -27 -48
-26 -81 2 -59 28 24 54 118 54 200 0 72 -13 111 -25 78z"/>
<path d="M2344 5196 c-16 -41 26 -158 59 -164 21 -4 23 21 3 38 -8 6 -20 37
-27 68 -14 64 -25 84 -35 58z"/>
<path d="M2215 5160 c-9 -15 4 -116 21 -172 17 -54 49 -98 70 -98 19 0 18 24
-3 41 -21 18 -52 87 -53 116 0 19 4 21 35 16 28 -4 35 -2 35 11 0 9 -8 17 -17
17 -10 1 -22 2 -28 4 -5 1 -16 3 -22 3 -8 1 -13 16 -13 37 0 34 -12 46 -25 25z"/>
<path d="M1520 4711 c-103 -8 -91 -26 18 -26 70 0 87 3 87 15 0 18 -7 18 -105
11z"/>
<path d="M1383 4639 c-9 -9 -5 -26 16 -68 41 -80 66 -109 82 -94 10 10 8 17
-9 35 -11 13 -32 49 -46 81 -14 31 -27 57 -29 57 -2 0 -8 -5 -14 -11z"/>
<path d="M1640 4624 c-6 -14 -10 -29 -10 -33 0 -5 -12 -25 -26 -46 -17 -26
-22 -41 -15 -48 16 -16 40 10 67 72 24 54 25 81 4 81 -6 0 -15 -12 -20 -26z"/>
<path d="M1387 2003 c-3 -5 1 -44 8 -87 11 -65 12 -83 0 -110 -16 -38 -65
-185 -68 -206 -1 -8 4 -15 12 -15 15 0 65 124 76 188 7 42 28 56 56 39 12 -8
20 -8 24 -1 9 14 -12 37 -38 41 -19 3 -23 12 -32 77 -9 67 -24 96 -38 74z"/>
</g>
</svg>
