<?xml version="1.0" standalone="no"?>
<!DOCTYPE svg PUBLIC "-//W3C//DTD SVG 20010904//EN"
 "http://www.w3.org/TR/2001/REC-SVG-20010904/DTD/svg10.dtd">
<svg version="1.0" xmlns="http://www.w3.org/2000/svg"
 width="115.000000pt" height="300.000000pt" viewBox="0 0 115.000000 300.000000"
 preserveAspectRatio="xMidYMid meet">
<metadata>
Created by potrace 1.10, written by Peter Selinger 2001-2011
</metadata>
<g transform="translate(0.000000,300.000000) scale(0.100000,-0.100000)"
fill="#000000" stroke="none">
<path d="M123 2993 c70 -2 184 -2 255 0 70 1 12 3 -128 3 -140 0 -198 -2 -127
-3z"/>
<path d="M762 2993 c70 -2 187 -2 260 0 73 1 16 3 -127 3 -143 0 -203 -2 -133
-3z"/>
<path d="M514 2946 c-17 -8 -39 -24 -48 -37 -22 -32 -20 -130 4 -199 11 -30
19 -74 20 -98 l0 -43 -67 -31 c-100 -46 -170 -93 -186 -125 -10 -19 -16 -81
-20 -190 -5 -147 -8 -166 -32 -212 -21 -43 -54 -200 -55 -268 0 -6 -16 -20
-35 -32 -51 -30 -99 -141 -61 -141 9 0 12 7 9 19 -2 10 4 36 16 58 24 49 64
69 105 53 21 -8 27 -7 24 2 -3 7 -15 14 -27 16 -15 3 -20 9 -17 20 3 9 12 62
20 117 19 134 51 208 70 160 3 -8 13 -15 22 -15 15 0 15 3 -4 23 -20 21 -21
30 -17 189 2 92 8 175 13 185 19 34 57 61 149 107 93 46 113 65 113 107 l0 22
23 -21 c27 -26 64 -28 95 -6 20 14 22 14 22 -4 0 -27 11 -34 120 -82 147 -64
147 -64 156 -245 11 -198 11 -195 -16 -216 -20 -14 -21 -19 -8 -19 9 0 20 5
23 10 23 38 52 -30 72 -169 8 -58 15 -109 16 -115 1 -5 -7 -12 -18 -14 -39 -8
-42 -25 -4 -18 50 9 86 -10 110 -56 10 -20 19 -42 19 -48 0 -18 -18 -11 -25
11 -4 11 -22 27 -41 35 -19 8 -37 21 -40 29 -4 8 -10 12 -15 9 -5 -3 -7 -9 -4
-14 7 -11 -15 -60 -27 -60 -4 0 -8 16 -8 35 0 19 -18 82 -40 141 -22 58 -47
145 -56 192 -9 48 -22 98 -29 112 -13 25 -9 99 9 170 6 23 6 24 -6 5 -7 -10
-25 -32 -40 -47 -14 -15 -23 -30 -18 -33 5 -3 11 -1 15 5 3 5 10 10 14 10 9 0
-7 -88 -34 -190 -12 -44 -15 -81 -11 -117 5 -43 3 -55 -9 -59 -29 -12 -60 -94
-35 -94 6 0 10 8 10 18 0 19 27 62 39 62 13 0 33 -207 33 -329 -1 -91 -5 -130
-23 -181 -16 -50 -23 -102 -29 -225 -6 -135 -12 -173 -34 -240 -15 -44 -30
-101 -33 -126 -6 -49 10 -135 33 -180 11 -22 11 -29 -2 -47 -7 -11 -11 -29 -8
-39 4 -13 0 -11 -15 7 -22 27 -29 12 -9 -20 20 -32 -2 -37 -28 -7 -14 17 -24
41 -24 60 0 18 -5 50 -11 72 -15 55 -19 345 -6 425 13 78 10 430 -4 483 -12
44 -35 49 -50 10 -6 -16 -12 -105 -14 -199 -1 -95 -5 -177 -9 -182 -4 -6 1
-36 9 -67 12 -41 16 -88 14 -173 -1 -64 1 -142 5 -173 6 -41 4 -65 -7 -91 -9
-20 -18 -61 -22 -92 -5 -38 -14 -61 -30 -76 -29 -27 -42 -10 -19 25 9 14 12
25 8 25 -5 0 -15 -10 -23 -21 -10 -18 -15 -19 -22 -8 -5 8 -6 22 -3 33 4 11 2
16 -4 12 -5 -3 2 27 16 67 37 102 35 168 -7 287 -32 88 -34 105 -37 236 -2
112 -7 156 -24 210 -30 97 -36 239 -16 394 9 68 19 126 21 128 9 10 34 -21 40
-49 4 -16 11 -29 17 -29 19 0 -2 54 -30 81 -24 21 -27 30 -20 55 10 36 2 100
-22 179 -10 33 -21 79 -24 103 -6 41 -5 42 14 32 14 -8 20 -8 20 0 0 6 -6 13
-14 16 -7 3 -22 21 -32 40 -19 35 -43 49 -29 17 5 -10 13 -44 18 -75 9 -47 8
-68 -6 -110 -9 -29 -21 -84 -27 -122 -6 -38 -31 -123 -55 -188 -26 -69 -45
-137 -45 -161 l-1 -42 -19 24 c-11 13 -20 32 -20 42 0 17 -3 16 -36 -6 -20
-14 -40 -25 -44 -25 -4 0 -12 -11 -18 -25 -7 -16 -8 -25 -2 -25 6 0 4 -16 -5
-36 -20 -48 -19 -66 4 -86 22 -18 62 -18 84 0 8 7 16 9 20 6 15 -15 40 54 49
134 6 58 22 120 48 187 21 55 43 126 49 158 28 149 33 167 41 167 5 0 16 -34
26 -76 15 -70 15 -83 0 -172 -42 -256 -44 -417 -4 -535 16 -49 21 -93 23 -207
3 -136 5 -152 39 -252 20 -59 36 -122 36 -141 0 -40 -36 -163 -50 -172 -32
-20 25 -124 68 -125 31 0 58 48 67 117 4 31 12 67 18 81 l11 24 12 -33 c7 -19
13 -54 13 -78 1 -56 34 -111 66 -111 45 0 95 95 66 126 -14 14 -41 127 -41
173 0 23 14 83 31 133 27 82 32 113 39 258 6 124 13 181 29 228 28 85 28 251
0 450 -12 86 -18 168 -15 198 7 62 30 131 39 117 4 -6 14 -52 23 -103 8 -51
33 -136 54 -190 24 -63 40 -125 45 -172 9 -93 28 -140 62 -155 35 -17 73 -16
96 1 21 16 21 33 2 80 l-15 37 25 -7 c20 -5 25 -2 25 12 -1 39 -39 104 -73
124 -37 22 -38 24 -57 178 -6 41 -21 95 -34 123 -14 27 -25 61 -25 77 0 15 -3
86 -7 159 -10 184 -15 192 -162 257 l-112 50 0 41 c0 23 4 45 9 50 14 15 41
115 41 153 0 103 -103 162 -206 118z m163 -40 c61 -72 -13 -296 -98 -296 -55
0 -109 105 -112 214 -2 86 37 118 132 112 44 -2 59 -8 78 -30z m378 -1267
c-23 -9 -65 -11 -65 -4 0 3 5 14 12 24 11 18 14 19 42 4 28 -15 29 -17 11 -24z
m-895 -18 c14 -28 13 -33 -10 -27 -11 3 -30 9 -42 12 -20 6 -21 5 -9 -10 9
-10 29 -16 56 -16 l43 0 -8 -33 c-4 -19 -12 -42 -19 -53 -9 -16 -10 -12 -5 20
5 28 4 37 -5 32 -6 -4 -11 -17 -11 -30 0 -26 -29 -71 -30 -46 0 8 4 30 9 48 5
17 6 32 2 32 -4 0 -12 -20 -19 -45 -7 -25 -17 -45 -23 -45 -6 0 -9 8 -6 18 3
9 10 32 15 50 6 17 7 32 3 32 -4 0 -13 -18 -20 -40 -6 -22 -16 -40 -22 -40 -6
0 -7 9 -3 23 4 12 13 42 19 67 8 30 20 49 36 57 32 17 37 16 49 -6z m920 -12
c0 -11 5 -29 11 -40 5 -11 9 -30 7 -42 -3 -17 -7 -13 -18 21 -7 23 -17 42 -21
42 -4 0 -3 -15 3 -32 5 -18 12 -41 15 -50 3 -10 0 -18 -6 -18 -6 0 -16 20 -23
45 -15 54 -30 61 -17 8 12 -53 11 -61 -6 -39 -8 11 -15 29 -15 40 0 12 -5 28
-11 36 -8 11 -9 6 -5 -22 2 -21 3 -38 0 -38 -5 0 -18 34 -28 72 -6 26 -5 27
28 21 18 -3 42 0 52 6 27 15 34 14 34 -10z m-479 -278 c2 -80 6 -160 10 -178
4 -18 1 -54 -8 -85 -8 -32 -13 -96 -13 -163 1 -60 1 -128 0 -150 -1 -37 -2
-38 -11 -15 -6 15 -8 65 -4 125 4 64 2 123 -6 165 -14 75 -13 63 -7 290 9 276
35 283 39 11z"/>
<path d="M575 2267 c-6 -18 -20 -36 -32 -42 -13 -5 -23 -13 -23 -17 0 -13 24
-9 46 6 17 12 22 12 39 0 20 -15 45 -19 45 -6 0 4 -10 12 -22 17 -13 6 -24 21
-26 35 -6 40 -17 43 -27 7z"/>
<path d="M507 1734 c-7 -7 42 -84 54 -84 14 0 11 7 -17 50 -29 44 -28 43 -37
34z"/>
<path d="M627 1705 c-28 -41 -33 -55 -19 -55 11 0 54 70 49 83 -2 6 -15 -7
-30 -28z"/>
<path d="M710 1189 c0 -17 4 -28 10 -24 6 3 10 17 10 31 0 13 -4 24 -10 24 -5
0 -10 -14 -10 -31z"/>
<path d="M510 1185 c0 -13 -7 -28 -16 -33 -9 -5 -12 -12 -7 -15 16 -10 32 8
39 41 4 21 3 32 -5 32 -6 0 -11 -11 -11 -25z"/>
<path d="M630 1196 c0 -19 24 -65 32 -60 6 4 6 10 -1 17 -6 6 -11 19 -11 29 0
10 -4 18 -10 18 -5 0 -10 -2 -10 -4z"/>
</g>
</svg>
