<?xml version="1.0" standalone="no"?>
<!DOCTYPE svg PUBLIC "-//W3C//DTD SVG 20010904//EN"
 "http://www.w3.org/TR/2001/REC-SVG-20010904/DTD/svg10.dtd">
<svg version="1.0" xmlns="http://www.w3.org/2000/svg"
 width="81.000000pt" height="300.000000pt" viewBox="0 0 81.000000 300.000000"
 preserveAspectRatio="xMidYMid meet">
<metadata>
Created by potrace 1.10, written by Peter Selinger 2001-2011
</metadata>
<g transform="translate(0.000000,300.000000) scale(0.100000,-0.100000)"
fill="#000000" stroke="none">
<path d="M98 2993 c57 -2 147 -2 200 0 53 1 7 3 -103 3 -110 0 -154 -2 -97 -3z"/>
<path d="M563 2993 c48 -2 125 -2 170 0 45 1 6 3 -88 3 -93 0 -130 -2 -82 -3z"/>
<path d="M348 2927 c-61 -52 -74 -142 -29 -205 30 -43 20 -125 -22 -189 -26
-39 -31 -56 -32 -112 -1 -37 -8 -83 -18 -104 -9 -21 -29 -84 -45 -140 -30
-107 -32 -153 -17 -322 5 -62 3 -90 -9 -124 -9 -24 -16 -72 -16 -107 0 -67 14
-93 65 -120 35 -18 65 10 65 61 0 38 2 43 20 38 17 -5 20 0 20 33 0 22 -9 59
-20 83 -24 52 -25 85 -4 187 10 50 14 99 10 135 -4 43 -2 58 8 62 9 4 18 -13
30 -54 22 -82 21 -134 -6 -178 -33 -52 -33 -161 1 -214 18 -30 24 -56 27 -114
2 -42 11 -114 19 -162 21 -118 19 -154 -10 -228 -38 -93 -42 -172 -16 -263 31
-106 39 -241 17 -274 -19 -30 -21 -79 -3 -93 6 -6 77 -13 157 -17 127 -5 149
-4 180 11 21 11 36 27 38 39 3 19 -3 22 -45 27 -26 2 -78 19 -116 36 l-67 31
0 73 c0 39 7 113 15 162 8 50 15 131 15 181 0 52 5 95 11 101 6 6 11 28 11 49
0 20 6 55 14 77 8 22 18 88 23 146 10 125 -2 476 -19 541 -8 33 -9 69 -1 140
6 52 10 106 10 120 -1 14 2 42 6 62 14 70 -1 107 -72 175 l-65 63 19 38 c12
21 29 38 40 40 27 4 43 65 43 162 0 129 -33 170 -140 170 -53 0 -70 -4 -92
-23z m182 -23 c24 -23 25 -30 25 -139 0 -71 -4 -118 -11 -125 -18 -18 -82 14
-96 47 -9 23 -12 25 -15 10 -5 -21 33 -67 54 -67 16 0 16 -8 -2 -40 l-13 -25
-7 28 c-4 15 -11 27 -16 27 -5 0 -6 -12 -3 -27 12 -53 35 -91 69 -115 72 -51
80 -71 78 -187 -2 -58 -7 -139 -13 -182 -9 -66 -8 -92 9 -176 33 -169 20 -609
-21 -660 -5 -6 -6 -22 -3 -36 4 -15 0 -37 -9 -55 -11 -22 -16 -59 -16 -124 0
-51 -7 -133 -15 -183 -21 -127 -20 -218 3 -237 32 -28 134 -68 173 -68 45 0
50 -12 15 -36 -21 -13 -46 -15 -175 -8 -165 7 -179 14 -143 63 26 37 22 189
-7 288 -29 101 -27 157 11 269 l32 95 -22 152 c-12 84 -22 171 -22 194 0 29
-8 54 -25 79 -46 68 -27 200 35 231 35 18 91 16 120 -4 35 -24 40 -33 40 -75
0 -21 5 -38 10 -38 16 0 12 73 -6 98 -31 45 -109 66 -155 42 -17 -10 -19 -7
-19 27 0 21 -9 70 -21 109 l-21 70 31 48 c16 27 33 68 37 92 3 25 10 46 13 49
4 2 29 -14 55 -35 27 -22 52 -37 58 -34 5 3 -3 14 -19 23 -15 10 -34 25 -42
34 -7 10 -20 17 -28 17 -10 0 -11 4 -3 19 6 12 6 22 1 26 -5 3 -12 -3 -16 -14
-3 -11 -22 -34 -42 -51 -34 -30 -41 -57 -7 -29 16 13 17 11 10 -16 -16 -64
-82 -155 -114 -155 -16 -1 -16 -2 0 -14 23 -17 23 -78 2 -211 -16 -99 -16
-101 5 -148 27 -58 37 -107 23 -107 -6 0 -13 18 -17 40 -11 67 -22 36 -17 -50
3 -53 1 -80 -6 -80 -6 0 -13 25 -15 58 l-3 57 -2 -68 c-2 -82 -22 -83 -22 -1
0 30 -4 54 -9 54 -4 0 -6 -23 -3 -50 3 -33 1 -50 -7 -50 -7 0 -12 22 -13 58
l-1 57 -7 -45 c-7 -44 -7 -44 -8 18 -1 35 5 92 14 128 14 55 15 76 5 134 -22
135 -9 236 51 403 21 59 31 69 42 41 4 -9 9 -14 12 -12 3 3 -2 29 -12 57 -20
63 -15 102 24 166 41 69 50 152 21 189 -54 69 -21 189 56 209 41 11 109 -4
135 -29z"/>
<path d="M377 2578 c-8 -28 4 -49 48 -83 35 -26 37 -29 30 -72 -8 -54 11 -51
21 3 6 33 3 40 -40 83 -31 31 -45 53 -41 63 4 9 2 19 -3 22 -5 3 -12 -4 -15
-16z"/>
<path d="M456 1216 c-4 -21 -5 -40 -2 -43 9 -9 35 24 26 33 -4 5 -10 18 -12
29 -3 14 -7 8 -12 -19z"/>
<path d="M439 656 c-8 -61 -3 -76 25 -76 19 1 20 2 4 13 -11 9 -18 31 -20 63
l-3 49 -6 -49z"/>
</g>
</svg>
