<?xml version="1.0" standalone="no"?>
<!DOCTYPE svg PUBLIC "-//W3C//DTD SVG 20010904//EN"
 "http://www.w3.org/TR/2001/REC-SVG-20010904/DTD/svg10.dtd">
<svg version="1.0" xmlns="http://www.w3.org/2000/svg"
 width="66.000000pt" height="300.000000pt" viewBox="0 0 66.000000 300.000000"
 preserveAspectRatio="xMidYMid meet">
<metadata>
Created by potrace 1.10, written by Peter Selinger 2001-2011
</metadata>
<g transform="translate(0.000000,300.000000) scale(0.100000,-0.100000)"
fill="#000000" stroke="none">
<path d="M48 2993 c28 -2 76 -2 105 0 28 2 5 3 -53 3 -58 0 -81 -1 -52 -3z"/>
<path d="M373 2993 c53 -2 141 -2 195 0 53 1 9 3 -98 3 -107 0 -151 -2 -97 -3z"/>
<path d="M147 2930 c-45 -35 -60 -147 -36 -260 8 -38 15 -50 29 -50 25 0 63
-64 55 -90 -3 -11 -11 -20 -16 -20 -21 0 -89 -75 -105 -116 -15 -39 -15 -54
-6 -112 21 -123 24 -263 7 -333 -22 -93 -21 -516 1 -614 29 -126 35 -168 44
-295 5 -69 13 -148 19 -177 11 -57 17 -196 8 -210 -3 -4 -37 -22 -76 -38 -63
-27 -88 -45 -62 -45 15 0 125 52 144 68 22 19 23 122 2 237 -8 44 -14 123 -15
176 0 61 -5 109 -14 131 -8 19 -12 45 -9 56 3 12 1 28 -5 35 -39 46 -51 531
-17 680 15 67 16 89 6 157 -7 43 -12 96 -11 117 0 21 -2 61 -6 89 -8 64 8 98
76 156 39 33 54 55 65 92 18 59 18 56 5 56 -5 0 -10 -9 -10 -19 0 -30 -16 -33
-29 -5 -14 32 -15 31 14 38 27 7 48 38 42 64 -3 13 -7 10 -15 -11 -15 -34 -80
-66 -93 -45 -14 22 -21 94 -17 168 3 60 8 74 30 97 23 22 36 26 86 27 47 1 65
-4 82 -19 56 -50 66 -126 24 -186 -24 -35 -25 -39 -14 -100 6 -35 23 -82 37
-103 33 -51 40 -110 19 -160 -19 -45 -20 -56 -6 -56 6 0 10 7 10 15 0 33 19
12 38 -42 56 -153 74 -293 53 -392 -7 -33 -7 -66 0 -102 5 -30 12 -92 14 -139
2 -62 1 -73 -4 -40 l-8 45 -1 -57 c-1 -36 -6 -58 -13 -58 -8 0 -10 16 -6 50 4
29 2 50 -3 50 -6 0 -10 -24 -10 -54 0 -30 -5 -58 -11 -61 -7 -5 -10 12 -8 54
1 33 -1 64 -4 68 -4 3 -7 -19 -7 -50 0 -36 -4 -57 -11 -57 -9 0 -10 23 -6 80
5 81 -5 109 -17 45 -4 -19 -11 -35 -16 -35 -14 0 0 58 24 104 19 39 19 41 3
140 -22 133 -22 195 1 212 16 12 16 13 0 14 -32 0 -98 91 -114 155 -7 27 -6
29 10 16 31 -26 27 -4 -6 30 -18 19 -39 43 -46 54 -12 18 -12 18 -7 -7 4 -20
1 -28 -9 -28 -7 0 -20 -7 -27 -17 -8 -9 -27 -24 -42 -34 -16 -9 -24 -20 -19
-23 6 -3 32 12 58 34 27 22 51 36 54 32 3 -4 12 -29 19 -57 6 -27 24 -68 38
-89 l25 -39 -21 -73 c-11 -40 -21 -89 -21 -108 0 -33 -2 -36 -19 -26 -51 27
-142 -4 -161 -56 -13 -33 -13 -84 0 -84 6 0 10 18 10 39 0 54 43 91 104 91 82
0 122 -61 114 -171 -3 -43 -10 -65 -26 -82 -17 -18 -22 -36 -23 -83 0 -32 -4
-84 -9 -114 -35 -220 -35 -230 -5 -300 39 -92 43 -172 14 -285 -29 -116 -32
-248 -6 -286 29 -41 14 -59 -48 -59 -95 0 -235 -13 -235 -22 0 -11 282 2 298
15 17 13 15 58 -4 97 -21 41 -14 152 15 260 27 100 26 160 -5 245 -36 98 -38
129 -19 251 9 59 18 138 20 176 3 50 10 79 27 106 33 52 33 161 1 213 -28 44
-30 102 -5 180 22 72 45 70 36 -4 -4 -32 0 -86 10 -138 20 -105 20 -142 2
-177 -18 -36 -30 -97 -22 -118 5 -13 9 -14 21 -4 13 11 15 6 15 -33 0 -36 5
-49 19 -57 30 -16 46 -12 80 17 28 25 31 33 31 89 0 35 -7 90 -16 124 -11 45
-14 79 -8 124 15 129 11 197 -18 303 -16 56 -36 119 -45 140 -10 21 -17 67
-18 104 -1 56 -6 73 -32 112 -42 64 -52 146 -22 186 46 63 28 173 -35 214 -38
25 -146 23 -179 -3z"/>
<path d="M288 2594 c-4 -3 -4 -13 -1 -21 4 -9 -12 -33 -42 -63 -44 -44 -47
-51 -41 -84 10 -54 29 -57 21 -3 -7 43 -5 46 30 72 20 16 40 36 45 46 10 18
-1 65 -12 53z"/>
<path d="M210 1234 c0 -11 -4 -24 -10 -30 -6 -6 -2 -14 11 -22 18 -12 19 -10
16 23 -4 38 -17 60 -17 29z"/>
<path d="M230 655 c0 -34 -5 -52 -17 -61 -17 -12 -16 -13 4 -14 25 0 33 19 29
73 -5 56 -16 58 -16 2z"/>
</g>
</svg>
